<svg xmlns="http://www.w3.org/2000/svg" viewBox="0 0 1000 500" preserveAspectRatio="xMidYMid meet" aria-hidden="true">
  <defs>
    <pattern id="p" x="0" y="0" width="6" height="6" patternUnits="userSpaceOnUse">
      <circle cx="3" cy="3" r="1.3" fill="rgba(255,255,255,0.18)"/>
    </pattern>
  </defs>
  <g fill="url(#p)">
    <!-- North America -->
    <polygon points="42,72 67,53 125,56 250,22 314,56 347,78 353,119 289,153 278,181 264,222 208,197 175,158 156,119 128,92 78,92 50,86"/>
    <!-- Greenland -->
    <polygon points="342,78 319,36 389,17 444,36 444,81 381,83"/>
    <!-- Iceland -->
    <polygon points="431,83 452,72 461,83 450,92"/>
    <!-- Cuba / Caribbean (small) -->
    <polygon points="264,186 286,183 283,192 261,194"/>
    <!-- South America -->
    <polygon points="286,228 328,217 403,264 392,292 367,344 319,403 308,408 294,372 275,272 278,250"/>
    <!-- Europe + Scandinavia -->
    <polygon points="475,144 478,128 486,117 503,108 497,92 492,86 514,81 542,53 583,56 667,61 639,131 619,147 600,147 561,147 553,136 544,144 519,128 508,139 486,150"/>
    <!-- Ireland -->
    <polygon points="462,100 472,97 475,108 465,111"/>
    <!-- Africa -->
    <polygon points="483,150 531,147 569,164 589,167 642,217 614,281 597,311 586,333 550,347 533,331 533,300 533,267 514,236 494,236 453,208 475,172"/>
    <!-- Madagascar -->
    <polygon points="597,311 606,294 614,302 610,333 597,326"/>
    <!-- Arabian Peninsula -->
    <polygon points="589,167 622,167 661,189 625,219 603,219 603,189"/>
    <!-- Asia (main body + India peninsula + SE Asia) -->
    <polygon points="572,150 639,131 667,61 792,42 950,53 981,75 950,108 875,133 853,156 806,192 789,222 786,247 772,219 756,189 722,217 722,228 714,228 689,186 667,181 603,189 600,147"/>
    <!-- SE Asia / Indochina extension -->
    <polygon points="789,222 808,208 828,242 802,258 786,247"/>
    <!-- Borneo -->
    <polygon points="800,253 841,247 859,270 831,286 810,275"/>
    <!-- Sumatra -->
    <polygon points="764,233 803,253 797,280 764,267"/>
    <!-- Java -->
    <polygon points="803,268 842,265 839,278 803,278"/>
    <!-- Philippines -->
    <polygon points="848,197 863,194 858,220 847,217"/>
    <!-- Japan -->
    <polygon points="889,114 903,121 906,143 895,153 882,140"/>
    <!-- Taiwan -->
    <polygon points="867,170 875,163 876,172 869,181"/>
    <!-- Sri Lanka -->
    <polygon points="659,265 665,258 668,270 661,276"/>
    <!-- Australia -->
    <polygon points="820,278 922,272 934,345 917,375 840,363 804,353 800,305"/>
    <!-- New Zealand N -->
    <polygon points="968,397 983,385 983,407 972,411"/>
    <!-- New Zealand S -->
    <polygon points="964,408 980,407 978,425 965,427"/>
    <!-- Antarctica (strip) -->
    <polygon points="0,472 1000,472 1000,500 0,500"/>
  </g>
</svg>
